<?xml version="1.0" encoding="UTF-8" standalone="no"?>
<!-- Created with Inkscape (http://www.inkscape.org/) -->

<svg
   version="1.1"
   id="svg55"
   width="933.54413"
   height="91.995995"
   viewBox="0 0 933.54411 91.995995"
   sodipodi:docname="solarwaves-logo.svg"
   inkscape:version="1.2.2 (b0a8486541, 2022-12-01)"
   xmlns:inkscape="http://www.inkscape.org/namespaces/inkscape"
   xmlns:sodipodi="http://sodipodi.sourceforge.net/DTD/sodipodi-0.dtd"
   xmlns="http://www.w3.org/2000/svg"
   xmlns:svg="http://www.w3.org/2000/svg">
  <defs
     id="defs59">
    <linearGradient
       x1="170.81"
       y1="332.13599"
       x2="170.81"
       y2="263.13901"
       gradientUnits="userSpaceOnUse"
       gradientTransform="scale(10)"
       spreadMethod="pad"
       id="linearGradient93">
      <stop
         style="stop-opacity:1;stop-color:#efb71b"
         offset="0"
         id="stop87" />
      <stop
         style="stop-opacity:1;stop-color:#e4961f"
         offset="0.508"
         id="stop89" />
      <stop
         style="stop-opacity:1;stop-color:#c0302d"
         offset="1"
         id="stop91" />
    </linearGradient>
  </defs>
  <sodipodi:namedview
     id="namedview57"
     pagecolor="#ffffff"
     bordercolor="#000000"
     borderopacity="0.25"
     inkscape:showpageshadow="2"
     inkscape:pageopacity="0.0"
     inkscape:pagecheckerboard="0"
     inkscape:deskcolor="#d1d1d1"
     showgrid="false"
     inkscape:zoom="1.4677967"
     inkscape:cx="466.0046"
     inkscape:cy="45.987296"
     inkscape:window-width="2494"
     inkscape:window-height="1371"
     inkscape:window-x="66"
     inkscape:window-y="32"
     inkscape:window-maximized="1"
     inkscape:current-layer="g63">
    <inkscape:page
       x="0"
       y="0"
       id="page61"
       width="933.54413"
       height="91.995995" />
  </sodipodi:namedview>
  <g
     id="g63"
     inkscape:groupmode="layer"
     inkscape:label="Page 1"
     transform="matrix(1.3333333,0,0,-1.3333333,-95.195864,442.84799)">
    <g
       id="g65"
       transform="scale(0.1)">
      <path
         d="m 1707.8,3320.75 c 190.23,0 344.68,-154.44 344.68,-344.68 0,-190.23 -154.45,-344.68 -344.68,-344.68 -190.24,0 -344.68,154.45 -344.68,344.68 0,190.24 154.44,344.68 344.68,344.68"
         style="fill:#2d2a29;fill-opacity:1;fill-rule:evenodd;stroke:none"
         id="path67" />
      <path
         d="m 1028.89,3005.67 c 32.15,0 59.71,-1.33 82.7,-3.98 22.99,-2.66 42.37,-6.59 58.13,-11.8 15.77,-5.21 28.33,-11.7 37.69,-19.46 9.36,-7.77 16.58,-16.61 21.67,-26.52 5.08,-9.9 8.39,-20.99 9.91,-33.25 1.53,-12.26 2.29,-25.54 2.29,-39.85 0,-14.18 -1.27,-27.5 -3.81,-39.96 -2.55,-12.45 -7.07,-23.85 -13.58,-34.18 -6.51,-10.33 -15.36,-19.55 -26.55,-27.65 -11.19,-8.11 -25.43,-14.99 -42.72,-20.67 -17.29,-5.67 -38.1,-9.97 -62.41,-12.91 -24.31,-2.94 -52.74,-4.41 -85.29,-4.41 h -78.119 c -29.289,0 -54.922,1.12 -76.903,3.36 -21.968,2.24 -40.886,5.65 -56.75,10.22 -15.867,4.58 -28.988,10.38 -39.367,17.4 -10.371,7.02 -18.66,15.25 -24.871,24.71 -6.199,9.46 -10.531,20.25 -12.969,32.35 -2.441,12.11 -3.66,25.48 -3.66,40.13 h 58.59 c 0,-18.6 2.641,-33.16 7.93,-43.7 5.289,-10.54 14.039,-18.44 26.25,-23.71 12.199,-5.27 28.219,-8.57 48.058,-9.92 19.832,-1.34 44.403,-2.01 73.692,-2.01 h 78.119 c 34.18,0 62.56,1.64 85.14,4.91 22.58,3.28 40.59,8.5 54.01,15.67 13.43,7.17 22.89,16.55 28.38,28.12 5.5,11.58 8.24,25.66 8.24,42.25 0,16.6 -1.88,30.42 -5.64,41.49 -3.77,11.06 -11.19,19.87 -22.28,26.42 -11.09,6.55 -26.7,11.21 -46.84,13.98 -20.14,2.77 -46.49,4.15 -79.04,4.15 h -80.562 c -35.797,0 -66.469,1.32 -92,3.97 -25.527,2.64 -46.937,6.45 -64.238,11.44 -17.289,4.98 -31.121,11.19 -41.5,18.61 -10.371,7.43 -18.262,15.92 -23.649,25.48 -5.39,9.56 -8.902,20.19 -10.519,31.89 -1.633,11.7 -2.453,24.36 -2.453,37.99 0,14.24 1.281,27.47 3.82,39.67 2.539,12.21 7.27,23.25 14.191,33.11 6.918,9.87 16.379,18.67 28.379,26.4 12,7.73 27.411,14.19 46.231,19.38 18.82,5.18 41.449,9.1 67.898,11.74 26.442,2.65 57.571,3.97 93.371,3.97 h 58.591 c 29.3,0 54.93,-1.07 76.9,-3.2 21.97,-2.14 40.89,-5.49 56.76,-10.07 15.87,-4.58 29.04,-10.28 39.52,-17.09 10.48,-6.82 18.82,-14.95 25.02,-24.41 6.21,-9.46 10.53,-20.19 12.97,-32.2 2.44,-12 3.66,-25.33 3.66,-39.97 h -58.59 c 0,18.31 -2.64,32.65 -7.93,43.02 -5.29,10.38 -14.04,18.16 -26.24,23.35 -12.21,5.19 -28.28,8.44 -48.22,9.76 -19.94,1.33 -44.55,1.99 -73.85,1.99 h -58.591 c -39.058,0 -71.199,-1.38 -96.429,-4.12 -25.219,-2.75 -45.16,-7.38 -59.809,-13.89 -14.641,-6.51 -24.82,-15.25 -30.512,-26.24 -5.699,-10.99 -8.55,-24.72 -8.55,-41.2 0,-10.17 0.722,-19.22 2.14,-27.16 1.422,-7.93 4.321,-14.9 8.699,-20.9 4.372,-6 10.524,-11.03 18.461,-15.1 7.93,-4.07 18.411,-7.43 31.43,-10.07 13.02,-2.65 28.941,-4.53 47.762,-5.65 18.808,-1.12 41.238,-1.68 67.277,-1.68 h 80.562"
         style="fill:#2d2a29;fill-opacity:1;fill-rule:nonzero;stroke:none"
         id="path69" />
      <path
         d="m 2185.22,2742.02 v 468.72 h 58.59 v -419.9 h 371.07 v -48.82 h -429.66"
         style="fill:#2d2a29;fill-opacity:1;fill-rule:nonzero;stroke:none"
         id="path71" />
      <path
         d="m 3162.12,2849.43 h -366.69 l -61.16,-107.41 h -67.83 l 267.43,468.72 h 84.11 l 266.53,-468.72 h -61.47 z m -27.7,48.83 L 2979.1,3172 2823.23,2898.26 h 311.19"
         style="fill:#2d2a29;fill-opacity:1;fill-rule:nonzero;stroke:none"
         id="path73" />
      <path
         d="m 3919.09,2742.02 h -58.59 v 87.88 c 0,14.24 -0.26,26.5 -0.76,36.77 -0.51,10.28 -2.24,19.08 -5.19,26.4 -2.95,7.32 -7.58,13.22 -13.89,17.7 -6.3,4.48 -15.25,7.93 -26.85,10.37 -11.6,2.45 -26.29,4.12 -44.1,5.04 -17.8,0.92 -39.72,1.37 -65.76,1.37 h -263.34 v -185.53 h -58.59 v 468.72 h 331.7 c 35.8,0 65.96,-1.27 90.48,-3.82 24.51,-2.54 44.75,-6.35 60.72,-11.44 15.97,-5.09 28.28,-11.39 36.93,-18.92 8.64,-7.53 14.95,-16.38 18.92,-26.55 3.96,-10.17 6.3,-21.56 7.02,-34.18 0.71,-12.61 1.06,-26.54 1.06,-41.8 0,-19.53 -1.37,-36.67 -4.12,-51.42 -2.74,-14.75 -7.37,-27.31 -13.88,-37.69 -6.51,-10.37 -15.16,-18.66 -25.94,-24.87 -10.78,-6.2 -24.31,-10.53 -40.58,-12.97 16.27,-2.44 29.29,-6.71 39.05,-12.81 9.77,-6.11 17.3,-14.04 22.59,-23.81 5.29,-9.76 8.8,-21.36 10.52,-34.78 1.73,-13.43 2.6,-28.69 2.6,-45.78 z m -478.48,234.36 h 273.11 c 26.04,0 47.96,0.46 65.76,1.37 17.8,0.92 32.5,2.59 44.09,5.04 11.6,2.44 20.55,5.9 26.86,10.37 6.3,4.48 10.93,10.38 13.88,17.7 2.95,7.32 4.68,16.12 5.19,26.4 0.51,10.27 0.76,22.53 0.76,36.77 0,13.22 -0.25,24.61 -0.76,34.17 -0.51,9.57 -2.24,17.6 -5.19,24.11 -2.95,6.51 -7.58,11.7 -13.88,15.57 -6.31,3.86 -15.26,6.86 -26.86,9 -11.59,2.13 -26.29,3.51 -44.09,4.12 -17.8,0.61 -39.72,0.91 -65.76,0.91 h -273.11 v -185.53"
         style="fill:#2d2a29;fill-opacity:1;fill-rule:nonzero;stroke:none"
         id="path75" />
      <path
         d="m 4762.19,3210.74 h 68.13 l 190.71,-420.51 185.47,420.51 h 61.1 l -207.57,-468.72 h -78.12 l -185.49,409.72 -185.48,-409.72 h -82.99 l -229.59,468.72 h 68.23 l 205.18,-419.88 190.42,419.88"
         style="fill:#2d2a29;fill-opacity:1;fill-rule:nonzero;stroke:none"
         id="path77" />
      <path
         d="M 5790.84,2849.43 H 5424.16 L 5363,2742.02 h -67.83 l 267.43,468.72 h 84.11 l 266.53,-468.72 h -61.47 z m -27.69,48.83 -155.32,273.74 -155.87,-273.74 h 311.19"
         style="fill:#2d2a29;fill-opacity:1;fill-rule:nonzero;stroke:none"
         id="path79" />
      <path
         d="m 6457.98,3210.74 h 60.39 l -245.93,-468.72 h -85.92 l -246.08,468.72 h 68.02 l 224.84,-429.5 224.68,429.5"
         style="fill:#2d2a29;fill-opacity:1;fill-rule:nonzero;stroke:none"
         id="path81" />
      <path
         d="m 6616.95,2742.02 v 468.72 h 468.72 v -48.83 h -410.13 v -156.24 h 390.6 v -48.82 h -390.6 v -166.01 h 410.13 v -48.82 h -468.72"
         style="fill:#2d2a29;fill-opacity:1;fill-rule:nonzero;stroke:none"
         id="path83" />
      <path
         d="m 7503.16,3005.67 c 32.14,0 59.71,-1.33 82.7,-3.98 22.99,-2.66 42.36,-6.59 58.13,-11.8 15.77,-5.21 28.33,-11.7 37.69,-19.46 9.36,-7.77 16.58,-16.61 21.66,-26.52 5.09,-9.9 8.39,-20.99 9.92,-33.25 1.53,-12.26 2.29,-25.54 2.29,-39.85 0,-14.18 -1.27,-27.5 -3.82,-39.96 -2.54,-12.45 -7.06,-23.85 -13.57,-34.18 -6.51,-10.33 -15.36,-19.55 -26.55,-27.65 -11.19,-8.11 -25.43,-14.99 -42.72,-20.67 -17.3,-5.67 -38.1,-9.97 -62.41,-12.91 -24.31,-2.94 -52.74,-4.41 -85.29,-4.41 h -78.12 c -29.29,0 -54.93,1.12 -76.9,3.36 -21.97,2.24 -40.89,5.65 -56.76,10.22 -15.87,4.58 -28.99,10.38 -39.36,17.4 -10.38,7.02 -18.67,15.25 -24.87,24.71 -6.21,9.46 -10.53,20.25 -12.97,32.35 -2.44,12.11 -3.66,25.48 -3.66,40.13 h 58.59 c 0,-18.6 2.64,-33.16 7.93,-43.7 5.29,-10.54 14.04,-18.44 26.24,-23.71 12.21,-5.27 28.23,-8.57 48.07,-9.92 19.83,-1.34 44.4,-2.01 73.69,-2.01 h 78.12 c 34.18,0 62.56,1.64 85.14,4.91 22.58,3.28 40.58,8.5 54.01,15.67 13.43,7.17 22.89,16.55 28.38,28.12 5.49,11.58 8.24,25.66 8.24,42.25 0,16.6 -1.88,30.42 -5.65,41.49 -3.76,11.06 -11.18,19.87 -22.27,26.42 -11.09,6.55 -26.7,11.21 -46.84,13.98 -20.14,2.77 -46.49,4.15 -79.04,4.15 h -80.56 c -35.8,0 -66.47,1.32 -92,3.97 -25.54,2.64 -46.95,6.45 -64.24,11.44 -17.29,4.98 -31.12,11.19 -41.5,18.61 -10.38,7.43 -18.26,15.92 -23.65,25.48 -5.39,9.56 -8.9,20.19 -10.53,31.89 -1.62,11.7 -2.44,24.36 -2.44,37.99 0,14.24 1.27,27.47 3.82,39.67 2.54,12.21 7.27,23.25 14.19,33.11 6.91,9.87 16.37,18.67 28.37,26.4 12.01,7.73 27.42,14.19 46.24,19.38 18.81,5.18 41.45,9.1 67.89,11.74 26.45,2.65 57.58,3.97 93.38,3.97 h 58.59 c 29.29,0 54.93,-1.07 76.9,-3.2 21.97,-2.14 40.89,-5.49 56.76,-10.07 15.87,-4.58 29.04,-10.28 39.52,-17.09 10.47,-6.82 18.81,-14.95 25.02,-24.41 6.2,-9.46 10.53,-20.19 12.97,-32.2 2.44,-12 3.66,-25.33 3.66,-39.97 h -58.59 c 0,18.31 -2.65,32.65 -7.93,43.02 -5.29,10.38 -14.04,18.16 -26.25,23.35 -12.2,5.19 -28.28,8.44 -48.21,9.76 -19.94,1.33 -44.56,1.99 -73.85,1.99 h -58.59 c -39.06,0 -71.2,-1.38 -96.43,-4.12 -25.22,-2.75 -45.16,-7.38 -59.81,-13.89 -14.65,-6.51 -24.82,-15.25 -30.51,-26.24 -5.7,-10.99 -8.55,-24.72 -8.55,-41.2 0,-10.17 0.71,-19.22 2.14,-27.16 1.42,-7.93 4.32,-14.9 8.69,-20.9 4.38,-6 10.53,-11.03 18.47,-15.1 7.93,-4.07 18.41,-7.43 31.43,-10.07 13.02,-2.65 28.94,-4.53 47.75,-5.65 18.82,-1.12 41.25,-1.68 67.29,-1.68 h 80.56"
         style="fill:#2d2a29;fill-opacity:1;fill-rule:nonzero;stroke:none"
         id="path85" />
      <path
         d="m 1363.12,2976.38 c 0,190.4 154.58,344.98 344.98,344.98 190.4,0 344.99,-154.58 344.99,-344.98 l -172.5,-98.72 -172.49,98.72 -172.49,-98.72 z m 688.22,-34.95 c -1.22,-12.03 -3.05,-23.88 -5.47,-35.51 l -165.28,-94.6 -172.49,98.73 -172.49,-98.73 -165.28,94.6 c -2.42,11.63 -4.25,23.48 -5.46,35.51 l 170.74,-97.72 172.49,98.72 172.49,-98.72 z m -16.42,-75.73 c -4.96,-14.63 -10.87,-28.82 -17.67,-42.5 l -136.66,-78.21 -172.49,98.72 -172.49,-98.72 -136.66,78.21 c -6.8,13.68 -12.71,27.87 -17.67,42.5 l 154.33,-88.32 172.49,98.72 172.49,-98.72 z m -49.76,-94.81 c -23.42,-31.51 -52.08,-58.89 -84.68,-80.85 l -19.89,-11.38 -172.49,98.72 -172.49,-98.72 -19.88,11.38 c -32.61,21.96 -61.27,49.34 -84.69,80.85 l 104.57,-59.84 172.49,98.71 172.49,-98.71 z m -134.82,-108.86 c -10.91,-4.95 -22.12,-9.35 -33.6,-13.16 l -108.64,62.18 -108.63,-62.18 c -11.48,3.81 -22.69,8.21 -33.6,13.16 l 142.23,81.4 z m -74.14,-23.91 c -22.02,-4.41 -44.79,-6.73 -68.1,-6.73 -23.31,0 -46.08,2.32 -68.1,6.73 l 68.1,38.98 68.1,-38.98"
         style="fill:url(#linearGradient93);fill-opacity:1;fill-rule:evenodd;stroke:none"
         id="path95" />
    </g>
  </g>
</svg>
